inDegrees=yes
name=ik_S49_A10_T01
DataType=double
version=3
OpenSimVersion=4.3-2021-08-27-4bc7ad9
endheader
time	pelvis_tilt	pelvis_list	pelvis_rotation	pelvis_tx	pelvis_ty	pelvis_tz	hip_flexion_r	hip_adduction_r	hip_rotation_r	knee_angle_r	knee_angle_r_beta	ankle_angle_r	subtalar_angle_r	mtp_angle_r	hip_flexion_l	hip_adduction_l	hip_rotation_l	knee_angle_l	knee_angle_l_beta	ankle_angle_l	subtalar_angle_l	mtp_angle_l	lumbar_extension	lumbar_bending	lumbar_rotation	arm_flex_r	arm_add_r	arm_rot_r	elbow_flex_r	pro_sup_r	wrist_flex_r	wrist_dev_r	arm_flex_l	arm_add_l	arm_rot_l	elbow_flex_l	pro_sup_l	wrist_flex_l	wrist_dev_l
16.03999999999975	-3.031599394387333	-2.277719618754339	30.95058766668923	0	0.9399999999999999	0	44.89413178085923	-9.999994557700928	-9.999765312077317	54.73554177254256	0.9553154217937608	0	0	0	44.89413178085923	-9.999994557700928	-9.999765312077317	54.73554177254256	0.9553154217937608	0	0	0	-3.657028965804316	-0.7315966589642601	2.792949920513669	11.68390466175608	2.127652862803338	1.453107677016001	15.17993159429837	72.10217933923651	0	0	17.33529377493184	8.169541794280349	9.017945253709414	2.067393912350358	67.11058412475691	0	0
16.05999999999975	-3.031211042210313	-2.297464724052787	30.90808270114295	0	0.9399999999999999	0	44.8941632762988	-9.999994563321851	-9.999765468095005	54.73559467866288	0.9553163451797548	0	0	0	44.8941632762988	-9.999994563321851	-9.999765468095005	54.73559467866288	0.9553163451797548	0	0	0	-3.666702251588403	-0.749200216569771	2.798640310589205	11.69370804231272	2.16518013339943	1.482599261124534	14.96221262808907	72.24470946693683	0	0	17.00746687223323	8.543792982133546	9.074834832446538	1.864842250521676	66.84080438411134	0	0
16.07999999999975	-3.033821201408291	-2.329780580588145	30.96462849411072	0	0.9399999999999999	0	44.89419297927159	-9.999994568642231	-9.999765615606288	54.73564437381189	0.9553172125237275	0	0	0	44.89419297927159	-9.999994568642231	-9.999765615606288	54.73564437381189	0.9553172125237275	0	0	0	-3.688389590061138	-0.7688077994012207	2.720501750406359	11.28164374289022	2.452841042748215	2.023310415591892	15.12403888175404	72.09218333441169	0	0	17.01806882771291	8.560168287200746	8.920767331360343	1.57143917958561	66.70499927874269	0	0
16.09999999999975	-3.025075756210486	-2.357933761892302	30.93410363871885	0	0.9399999999999999	0	44.89422469143232	-9.999994574283313	-9.999765772401057	54.73569773428719	0.9553181438397118	0	0	0	44.89422469143232	-9.999994574283313	-9.999765772401057	54.73569773428719	0.9553181438397118	0	0	0	-3.69330606281798	-0.8029458250794375	2.781299456370227	11.19790948085826	2.634620413772674	1.788735637403511	15.00585816976668	72.34075987878586	0	0	17.01273230405305	8.587499725562628	8.929743095503047	1.089716576063452	67.33887806107718	0	0
16.11999999999975	-3.025410619724397	-2.375122958926128	30.90602156974926	0	0.9399999999999999	0	44.89424405552154	-9.999994577696038	-9.999765867563532	54.73573059005856	0.9553187172811004	0	0	0	44.89424405552154	-9.999994577696038	-9.999765867563532	54.73573059005856	0.9553187172811004	0	0	0	-3.702930283990708	-0.8162220146592557	2.765959157131907	11.18466444811839	2.727377742160347	1.844083615241947	14.89233955238203	72.33984496219611	0	0	17.00223199544424	8.644363368119262	8.916627293627128	0.9279873570827174	67.2760410194296	0	0
16.13999999999974	-3.048103456738906	-2.401696918388489	30.93997973390111	0	0.9399999999999999	0	44.89427165887537	-9.999994582584597	-9.999766003666698	54.73577719270814	0.9553195306507758	0	0	0	44.89427165887537	-9.999994582584597	-9.999766003666698	54.73577719270814	0.9553195306507758	0	0	0	-3.736476157962518	-0.8262610204442669	2.753927736264753	11.21962939693237	2.816514934175936	1.957367732129413	14.78180617600488	72.17172017355348	0	0	17.04481099139591	8.71475118212348	9.009823334124128	0.7294161264460415	67.05126098582006	0	0
16.15999999999974	-3.103791211763357	-2.428505406649503	30.95759179050262	0	0.9399999999999999	0	44.89429878116101	-9.99999458739782	-9.99976613758923	54.73582287923151	0.9553203280310323	0	0	0	44.89429878116101	-9.99999458739782	-9.99976613758923	54.73582287923151	0.9553203280310323	0	0	0	-3.798408094519904	-0.8196967135715965	2.745309457883574	11.2822211786895	2.85925642824022	2.068565044502068	14.7398142153545	72.1241395943706	0	0	17.15644102954052	8.80588324439997	9.064485933051953	0.6107334227085721	66.99123047550013	0	0
16.17999999999974	-3.136893363773044	-2.446471690015887	30.95849431997359	0	0.9399999999999999	0	44.89427469942546	-9.999994584855544	-9.999766044950936	54.73578032999609	0.9553195854067801	0	0	0	44.89427469942546	-9.999994584855544	-9.999766044950936	54.73578032999609	0.9553195854067801	0	0	0	-3.835617909560684	-0.8191082192012449	2.756126841172626	11.30701249692006	2.877285534824131	2.10577441729237	14.70574191507082	72.13679472127316	0	0	17.22991031128779	8.873649382889864	9.118746878839199	0.4784619595634498	67.10917356753396	0	0
16.19999999999974	-3.144296960737207	-2.461778679544121	30.9691893511495	0	0.9399999999999999	0	44.8943850604664	-9.999994597738082	-9.999766481629386	54.73597753457886	0.9553230272760495	0	0	0	44.8943850604664	-9.999994597738082	-9.999766481629386	54.73597753457886	0.9553230272760495	0	0	0	-3.850018712140876	-0.8278651511620381	2.753860949196443	11.27001242924665	2.923387237877892	2.160593715857494	14.61757470743621	72.18690782752277	0	0	17.28739545830565	8.910428953916581	9.151344909208774	0.3525441308001039	67.3116976831258	0	0
16.21999999999974	-3.14839218414988	-2.46722752027284	30.98155441043449	0	0.9399999999999999	0	44.89449369990972	-9.9999946116336	-9.999766932314476	54.7361688895077	0.9553263670495975	0	0	0	44.89449369990972	-9.9999946116336	-9.999766932314476	54.7361688895077	0.9553263670495975	0	0	0	-3.856462305692324	-0.8297612980925849	2.750001869597295	11.21962315667768	2.998723555891836	2.191920005917428	14.53681294284107	72.15339212168328	0	0	17.31617206128832	8.928309817332202	9.145837870815559	0.2443775632850291	67.47872187928945	0	0
16.23999999999974	-3.147128977479829	-2.478474302721196	30.99366437746768	0	0.9399999999999999	0	44.89453438519379	-9.999994617313574	-9.999767108563654	54.73623993256052	0.95532760698478	0	0	0	44.89453438519379	-9.999994617313574	-9.999767108563654	54.73623993256052	0.95532760698478	0	0	0	-3.860844339801727	-0.8407719541545842	2.758621744187443	11.23460739636494	3.016805182052659	2.174299518318254	14.4182120285726	72.05863131777186	0	0	17.30046759097721	8.951817989127672	9.169130293389275	0.1488210982899657	67.44673844570463	0	0
